<svg id="Layer_1" data-name="Layer 1" xmlns="http://www.w3.org/2000/svg" viewBox="0 0 1920 1080">
  <title>MT-Triangles</title>
  <polygon points="207.85 288.12 249.41 360.12 290.99 288.12 207.85 288.12" fill="#1ebee6"/>
  <polygon points="83.14 216.12 124.71 144.12 166.28 216.12 83.14 216.12" fill="#82dca0"/>
  <polygon points="83.14 72.08 124.71 0.07 166.28 72.08 83.14 72.08" fill="#82dca0"/>
  <polygon points="41.57 432.16 83.14 504.16 124.71 432.16 41.57 432.16" fill="#4664ea"/>
  <polygon points="0 144.12 0 72.12 41.57 144.12 0 144.12" fill="#82dca0"/>
  <polygon points="207.85 144.12 249.41 216.12 290.99 144.12 207.85 144.12" fill="#fad250"/>
  <polygon points="124.71 288.12 166.28 216.12 207.85 288.12 124.71 288.12" fill="#fad250"/>
  <polygon points="166.28 216.12 207.85 144.12 249.41 216.12 166.28 216.12" fill="#4664ea"/>
  <polygon points="207.85 288.16 249.41 216.16 290.99 288.16 207.85 288.16" fill="#ff87a0"/>
  <polygon points="415.69 72.12 457.26 0.12 498.83 72.12 415.69 72.12" fill="#1ebee6"/>
  <polygon points="374.12 0.12 415.69 72.12 457.26 0.12 374.12 0.12" fill="#ff87a0"/>
  <polygon points="207.85 144.07 249.41 72.08 290.99 144.07 207.85 144.07" fill="#82dca0"/>
  <polygon points="0 216.12 41.57 144.12 83.14 216.12 0 216.12" fill="#fad250"/>
  <polygon points="103.92 108.12 124.71 72.12 145.49 108.12 103.92 108.12" fill="#4664ea"/>
  <polygon points="0 216.16 0 360.16 83.14 216.16 0 216.16" fill="#82dca0"/>
  <polygon points="41.57 432.12 83.14 360.12 124.71 432.12 41.57 432.12" fill="#1ebee6"/>
  <polygon points="249.41 216.12 290.99 144.12 332.55 216.12 249.41 216.12" fill="#3c5078"/>
  <polygon points="415.69 72.12 374.12 144.12 332.55 72.12 415.69 72.12" fill="#fad250"/>
  <polygon points="332.55 72.12 353.34 36.12 374.12 72.12 332.55 72.12" fill="#4664ea"/>
  <polygon points="374.12 72.12 394.91 36.12 415.69 72.12 374.12 72.12" fill="#1ebee6"/>
  <polygon points="727.46 36.08 748.25 0.07 769.03 36.08 727.46 36.08" fill="#1ebee6"/>
  <polygon points="103.92 108.12 124.71 144.12 145.49 108.12 103.92 108.12" fill="#3c5078"/>
  <polygon points="83.14 144.12 103.92 108.12 124.71 144.12 83.14 144.12" fill="#ff87a0"/>
  <polygon points="62.35 108.12 83.14 72.12 103.92 108.12 62.35 108.12" fill="#4664ea"/>
  <polygon points="62.35 108.12 83.14 144.12 103.92 108.12 62.35 108.12" fill="#1ebee6"/>
  <polygon points="83.14 72.12 103.92 108.12 124.71 72.12 83.14 72.12" fill="#fad250"/>
  <polygon points="124.71 72.12 145.49 108.12 166.28 72.12 124.71 72.12" fill="#ff87a0"/>
  <polygon points="41.57 144.12 62.35 108.12 83.14 144.12 41.57 144.12" fill="#82dca0"/>
  <polygon points="332.55 0.12 353.34 36.12 374.12 0.12 332.55 0.12" fill="#ff87a0"/>
  <polygon points="311.77 36.12 332.55 72.12 353.34 36.12 311.77 36.12" fill="#1ebee6"/>
  <polygon points="311.77 36.12 332.55 0.12 353.34 36.12 311.77 36.12" fill="#fad250"/>
  <polygon points="290.99 0.12 311.77 36.12 332.55 0.12 290.99 0.12" fill="#82dca0"/>
  <polygon points="83.14 288.12 103.92 324.12 124.71 288.12 83.14 288.12" fill="#3c5078"/>
  <polygon points="20.79 468.16 41.57 432.16 62.35 468.16 20.79 468.16" fill="#fad250"/>
  <polygon points="20.79 468.16 41.57 504.16 62.35 468.16 20.79 468.16" fill="#ff87a0"/>
  <polygon points="353.34 36.12 374.12 0.12 394.91 36.12 353.34 36.12" fill="#fad250"/>
  <polygon points="353.34 36.12 374.12 72.12 394.91 36.12 353.34 36.12" fill="#3c5078"/>
  <polygon points="374.12 144.12 394.91 108.12 415.69 144.12 374.12 144.12" fill="#4664ea"/>
  <polygon points="394.91 108.12 415.69 72.12 436.48 108.12 394.91 108.12" fill="#1ebee6"/>
  <polygon points="394.91 108.12 415.69 144.12 436.48 108.12 394.91 108.12" fill="#ff87a0"/>
  <polygon points="0 504.16 20.79 468.16 41.57 504.16 0 504.16" fill="#4664ea"/>
  <polygon points="62.35 324.12 83.14 288.12 103.92 324.12 62.35 324.12" fill="#1ebee6"/>
  <polygon points="41.57 288.12 62.35 324.12 83.14 288.12 41.57 288.12" fill="#4664ea"/>
  <polygon points="62.35 324.12 83.14 360.12 103.92 324.12 62.35 324.12" fill="#82dca0"/>
  <polygon points="290.99 216.12 311.77 252.12 332.55 216.12 290.99 216.12" fill="#3c5078"/>
  <polygon points="187.06 252.12 207.85 216.12 228.63 252.12 187.06 252.12" fill="#1ebee6"/>
  <polygon points="207.85 216.12 228.63 252.12 249.41 216.12 207.85 216.12" fill="#3c5078"/>
  <polygon points="166.28 216.12 187.06 252.12 207.85 216.12 166.28 216.12" fill="#ff87a0"/>
  <polygon points="187.06 252.12 207.85 288.12 228.63 252.12 187.06 252.12" fill="#4664ea"/>
  <polygon points="270.2 252.12 290.99 288.12 311.77 252.12 270.2 252.12" fill="#1ebee6"/>
  <polygon points="249.41 216.12 270.2 252.12 290.99 216.12 249.41 216.12" fill="#4664ea"/>
  <polygon points="270.2 252.12 290.99 216.12 311.77 252.12 270.2 252.12" fill="#fad250"/>
  <polygon points="41.57 288.12 83.14 216.12 124.71 288.12 41.57 288.12" fill="#ff87a0"/>
  <polygon points="623.54 72.08 665.11 0.07 706.68 72.08 623.54 72.08" fill="#ff87a0"/>
  <polygon points="207.85 144.12 166.28 216.12 124.71 144.12 207.85 144.12" fill="#1ebee6"/>
  <polygon points="207.85 144.12 166.28 72.12 124.71 144.12 207.85 144.12" fill="#4664ea"/>
  <polygon points="249.41 72.12 207.85 144.12 166.28 72.12 249.41 72.12" fill="#ff87a0"/>
  <polygon points="166.28 360.12 124.71 432.12 83.14 360.12 166.28 360.12" fill="#fad250"/>
  <polygon points="166.28 360.12 124.71 288.12 83.14 360.12 166.28 360.12" fill="#4664ea"/>
  <polygon points="41.57 432.12 0 360.12 0 432.12 41.57 432.12" fill="#4664ea"/>
  <polygon points="0 360.16 41.57 432.16 83.14 360.16 0 360.16" fill="#ff87a0"/>
  <polygon points="83.14 360.16 41.57 288.16 0 360.16 83.14 360.16" fill="#fad250"/>
  <polygon points="207.85 288.12 166.28 360.12 124.71 288.12 207.85 288.12" fill="#ff87a0"/>
  <polygon points="228.63 324.12 207.85 288.12 187.06 324.12 228.63 324.12" fill="#3c5078"/>
  <polygon points="41.57 504.16 62.35 468.16 83.14 504.16 41.57 504.16" fill="#82dca0"/>
  <polygon points="290.99 144.12 332.55 72.12 374.12 144.12 290.99 144.12" fill="#ff87a0"/>
  <polygon points="311.77 108.08 290.99 144.07 270.2 108.08 311.77 108.08" fill="#1ebee6"/>
  <polygon points="332.55 72.08 311.77 108.08 290.99 72.08 332.55 72.08" fill="#fad250"/>
  <polygon points="249.41 72.08 270.2 108.08 290.99 72.08 249.41 72.08" fill="#4664ea"/>
  <polygon points="311.77 108.08 290.99 72.08 270.2 108.08 311.77 108.08" fill="#82dca0"/>
  <polygon points="249.41 360.12 228.63 324.12 207.85 360.12 249.41 360.12" fill="#fad250"/>
  <polygon points="166.28 360.12 187.06 324.12 207.85 360.12 166.28 360.12" fill="#82dca0"/>
  <polygon points="228.63 324.12 207.85 360.12 187.06 324.12 228.63 324.12" fill="#1ebee6"/>
  <polygon points="394.91 180.12 374.12 216.12 353.34 180.12 394.91 180.12" fill="#fad250"/>
  <polygon points="332.55 216.12 353.34 180.12 374.12 216.12 332.55 216.12" fill="#4664ea"/>
  <polygon points="0 576.16 20.79 612.16 41.57 576.16 0 576.16" fill="#4664ea"/>
  <polygon points="415.69 72.12 436.48 108.12 457.26 72.12 415.69 72.12" fill="#fad250"/>
  <polygon points="498.83 72.12 478.05 108.12 457.26 72.12 498.83 72.12" fill="#3c5078"/>
  <polygon points="436.48 108.12 457.26 72.12 478.05 108.12 436.48 108.12" fill="#82dca0"/>
  <polygon points="62.35 36.08 83.14 72.08 103.92 36.08 62.35 36.08" fill="#4664ea"/>
  <polygon points="41.57 0.07 62.35 36.08 83.14 0.07 41.57 0.07" fill="#fad250"/>
  <polygon points="124.71 0.07 103.92 36.08 83.14 0.07 124.71 0.07" fill="#ff87a0"/>
  <polygon points="62.35 36.08 83.14 0.07 103.92 36.08 62.35 36.08" fill="#82dca0"/>
  <polygon points="0 180.12 0 216.12 20.79 180.12 0 180.12" fill="#4664ea"/>
  <polygon points="41.57 144.12 20.79 180.12 0 144.12 41.57 144.12" fill="#ff87a0"/>
  <polygon points="0 180.12 0 144.12 20.79 180.12 0 180.12" fill="#82dca0"/>
  <polygon points="0 468.16 0 504.16 20.79 468.16 0 468.16" fill="#82dca0"/>
  <polygon points="0 612.16 0 576.16 20.79 612.16 0 612.16" fill="#ff87a0"/>
  <polygon points="0 612.16 0 648.16 20.79 612.16 0 612.16" fill="#fad250"/>
  <polygon points="41.57 432.16 20.79 468.16 0 432.16 41.57 432.16" fill="#1ebee6"/>
  <polygon points="0 468.16 0 432.16 20.79 468.16 0 468.16" fill="#3c5078"/>
  <polygon points="103.92 252.12 124.71 288.12 145.49 252.12 103.92 252.12" fill="#1ebee6"/>
  <polygon points="83.14 216.12 103.92 252.12 124.71 216.12 83.14 216.12" fill="#fad250"/>
  <polygon points="166.28 216.12 145.49 252.12 124.71 216.12 166.28 216.12" fill="#4664ea"/>
  <polygon points="103.92 252.12 124.71 216.12 145.49 252.12 103.92 252.12" fill="#3c5078"/>
  <polygon points="311.77 180.12 332.55 216.12 353.34 180.12 311.77 180.12" fill="#1ebee6"/>
  <polygon points="290.99 144.12 311.77 180.12 332.55 144.12 290.99 144.12" fill="#fad250"/>
  <polygon points="374.12 144.12 353.34 180.12 332.55 144.12 374.12 144.12" fill="#4664ea"/>
  <polygon points="311.77 180.12 332.55 144.12 353.34 180.12 311.77 180.12" fill="#ff87a0"/>
  <polygon points="415.69 144.12 394.91 180.12 374.12 144.12 415.69 144.12" fill="#1ebee6"/>
  <polygon points="748.25 0.07 769.03 36.08 789.82 0.07 748.25 0.07" fill="#ff87a0"/>
  <polygon points="831.38 0.07 810.6 36.08 789.82 0.07 831.38 0.07" fill="#4664ea"/>
  <polygon points="665.11 0.07 644.32 36.08 623.54 0.07 665.11 0.07" fill="#3c5078"/>
  <polygon points="353.34 180.12 374.12 144.12 394.91 180.12 353.34 180.12" fill="#82dca0"/>
  <polygon points="270.2 324.12 290.99 288.12 311.77 324.12 270.2 324.12" fill="#82dca0"/>
  <polygon points="290.99 288.12 311.77 252.12 332.55 288.12 290.99 288.12" fill="#3c5078"/>
  <polygon points="290.99 288.12 311.77 324.12 332.55 288.12 290.99 288.12" fill="#ff87a0"/>
  <polygon points="311.77 324.12 290.99 360.12 270.2 324.12 311.77 324.12" fill="#4664ea"/>
  <polygon points="249.41 360.12 270.2 324.12 290.99 360.12 249.41 360.12" fill="#ff87a0"/>
  <polygon points="83.14 504.16 103.92 468.16 124.71 504.16 83.14 504.16" fill="#3c5078"/>
  <polygon points="103.92 468.16 124.71 432.16 145.49 468.16 103.92 468.16" fill="#ff87a0"/>
  <polygon points="103.92 468.16 124.71 504.16 145.49 468.16 103.92 468.16" fill="#4664ea"/>
  <polygon points="124.71 504.16 103.92 540.16 83.14 504.16 124.71 504.16" fill="#fad250"/>
  <polygon points="62.35 540.16 83.14 504.16 103.92 540.16 62.35 540.16" fill="#1ebee6"/>
  <polygon points="41.57 144.12 83.14 216.12 124.71 144.12 41.57 144.12" fill="#4664ea"/>
  <polygon points="207.85 0.07 249.41 72.08 290.99 0.07 207.85 0.07" fill="#82dca0"/>
  <polygon points="457.26 0.12 498.83 72.12 540.4 0.12 457.26 0.12" fill="#4664ea"/>
  <polygon points="498.83 72.12 540.4 0.12 581.97 72.12 498.83 72.12" fill="#3c5078"/>
  <polygon points="540.4 0.12 581.97 72.12 623.54 0.12 540.4 0.12" fill="#82dca0"/>
  <polygon points="166.28 72.08 207.85 0.07 249.41 72.08 166.28 72.08" fill="#4664ea"/>
  <polygon points="83.14 72.12 41.57 144.12 0 72.12 83.14 72.12" fill="#ff87a0"/>
  <polygon points="0 576.16 0 504.16 41.57 576.16 0 576.16" fill="#1ebee6"/>
  <polygon points="83.14 504.16 41.57 576.16 0 504.16 83.14 504.16" fill="#fad250"/>
  <polygon points="41.57 0.07 0 72.08 0 0.07 41.57 0.07" fill="#ff87a0"/>
  <polygon points="0 72.08 41.57 0.07 83.14 72.08 0 72.08" fill="#4664ea"/>
  <polygon points="124.71 0.07 166.28 72.08 207.85 0.07 124.71 0.07" fill="#fad250"/>
  <polygon points="665.11 0.07 706.68 72.08 748.25 0.07 665.11 0.07" fill="#fad250"/>
  <polygon points="270.2 36.08 290.99 72.08 311.77 36.08 270.2 36.08" fill="#1ebee6"/>
  <polygon points="290.99 72.08 311.77 36.08 332.55 72.08 290.99 72.08" fill="#82dca0"/>
  <polygon points="602.75 36.08 623.54 72.08 644.32 36.08 602.75 36.08" fill="#1ebee6"/>
  <polygon points="602.75 36.08 623.54 0.07 644.32 36.08 602.75 36.08" fill="#fad250"/>
  <polygon points="581.97 72.03 602.75 36.03 623.54 72.03 581.97 72.03" fill="#4664ea"/>
  <polygon points="769.03 36.08 789.82 0.07 810.6 36.08 769.03 36.08" fill="#82dca0"/>
  <polygon points="249.41 72.08 270.2 36.08 290.99 72.08 249.41 72.08" fill="#ff87a0"/>
  <polygon points="270.2 36.08 290.99 0.07 311.77 36.08 270.2 36.08" fill="#4664ea"/>
</svg>
