<svg width="1635" height="1080" viewBox="0 0 1635 1080" fill="none" xmlns="http://www.w3.org/2000/svg">
<path d="M1240.59 899.939L1188.86 989.928L1137.21 899.939H1240.59Z" fill="#82DCA0"/>
<path d="M826.979 899.939L775.329 989.928L723.596 899.939H826.979Z" fill="#82DCA0"/>
<path d="M1441.57 0L1389.84 89.9889L1338.19 0H1441.57Z" fill="#1EBEE6"/>
<path d="M671.946 809.95L620.213 899.939L568.563 809.95H671.946Z" fill="#3C5078"/>
<path d="M878.711 809.95L826.978 899.939L775.328 809.95H878.711Z" fill="#FAD250"/>
<path d="M1085.48 989.928L1033.83 899.939L982.094 989.928H1085.48Z" fill="#1EBEE6"/>
<path d="M982.094 989.928L930.361 899.939L878.711 989.928H982.094Z" fill="#82DCA0"/>
<path d="M516.831 899.939L465.181 809.95L413.448 899.939H516.831Z" fill="#1EBEE6"/>
<path d="M516.831 899.939L465.181 989.928L413.448 899.939H516.831Z" fill="#4664EA"/>
<path d="M775.328 809.95L671.946 629.972L568.563 809.95H775.328Z" fill="#FF87A0"/>
<path d="M1390.17 89.989L1338.44 179.978L1286.79 89.989H1390.17Z" fill="#FF87A0"/>
<path d="M620.213 719.961L568.563 629.972L516.83 719.961H620.213Z" fill="#FAD250"/>
<path d="M1653.96 899.939L1602.31 809.95L1550.57 899.939H1653.96Z" fill="#1EBEE6"/>
<path d="M1602.31 989.928L1550.57 899.939L1498.92 989.928H1602.31Z" fill="#82DCA0"/>
<path d="M1653.96 899.939L1602.31 989.928L1550.57 899.939H1653.96Z" fill="#FF87A0"/>
<path d="M1705.69 809.95L1653.96 899.939L1602.31 809.95H1705.69Z" fill="#4664EA"/>
<path d="M1602.31 989.969L1550.57 1079.96L1498.92 989.969H1602.31Z" fill="#FF87A0"/>
<path d="M1183.07 90.0722L1131.34 0.083252L1079.69 90.0722H1183.07Z" fill="#1EBEE6"/>
<path d="M1390.17 89.9889L1338.44 0L1286.79 89.9889H1390.17Z" fill="#82DCA0"/>
<path d="M1188.86 989.928L1137.21 899.939L1085.48 989.928H1188.86Z" fill="#FAD250"/>
<path d="M568.563 629.972L516.83 539.983L465.18 629.972H568.563Z" fill="#FAD250"/>
<path d="M1338.44 179.978L1286.79 89.989L1235.06 179.978H1338.44Z" fill="#3C5078"/>
<path d="M826.979 899.939L775.329 809.95L723.596 899.939H826.979Z" fill="#FF87A0"/>
<path d="M775.329 809.95L723.596 899.939L671.946 809.95H775.329Z" fill="#4664EA"/>
<path d="M723.595 899.939L671.946 809.95L620.213 899.939H723.595Z" fill="#82DCA0"/>
<path d="M620.213 719.961L568.563 809.95L516.83 719.961H620.213Z" fill="#1EBEE6"/>
<path d="M723.596 899.939L620.213 1079.92L516.83 899.939H723.596Z" fill="#1EBEE6"/>
<path d="M413.448 1079.92L310.065 899.939L206.682 1079.92H413.448Z" fill="#1EBEE6"/>
<path d="M1447.36 1079.92L1343.97 899.939L1240.59 1079.92H1447.36Z" fill="#1EBEE6"/>
<path d="M1338.27 0.083252L1234.89 180.061L1131.51 0.083252H1338.27Z" fill="#FAD250"/>
<path d="M878.711 989.928L826.978 899.939L775.328 989.928H878.711Z" fill="#4664EA"/>
<path d="M361.798 989.928L413.448 899.939L465.181 989.928H361.798Z" fill="#82DCA0"/>
<path d="M310.065 899.939L361.798 989.928L413.448 899.939H310.065Z" fill="#4664EA"/>
<path d="M826.979 1079.92L775.329 989.928L723.596 1079.92H826.979Z" fill="#1EBEE6"/>
<path d="M723.595 1079.92L671.946 989.928L620.213 1079.92H723.595Z" fill="#FAD250"/>
<path d="M775.329 989.928L723.596 1079.92L671.946 989.928H775.329Z" fill="#FF87A0"/>
<path d="M878.711 809.95L826.978 719.961L775.328 809.95H878.711Z" fill="#4664EA"/>
<path d="M930.361 899.939L878.711 989.928L826.978 899.939H930.361Z" fill="#FAD250"/>
<path d="M930.361 899.939L878.711 809.95L826.978 899.939H930.361Z" fill="#1EBEE6"/>
<path d="M465.181 809.95L413.448 719.961L361.798 809.95H465.181Z" fill="#FF87A0"/>
<path d="M1033.83 899.939L1007.96 944.933L982.094 899.939H1033.83Z" fill="#FAD250"/>
<path d="M490.964 764.956L465.18 809.95L439.314 764.956H490.964Z" fill="#1EBEE6"/>
<path d="M1111.34 944.933L1085.48 989.928L1059.61 944.933H1111.34Z" fill="#4664EA"/>
<path d="M1266.38 944.933L1240.59 989.928L1214.73 944.933H1266.38Z" fill="#3C5078"/>
<path d="M1240.59 989.928L1214.73 944.933L1188.86 989.928H1240.59Z" fill="#FF87A0"/>
<path d="M594.347 854.944L568.563 899.939L542.697 854.944H594.347Z" fill="#1EBEE6"/>
<path d="M568.563 899.939L542.697 854.944L516.83 899.939H568.563Z" fill="#82DCA0"/>
<path d="M620.213 899.939L594.346 854.944L568.563 899.939H620.213Z" fill="#FF87A0"/>
<path d="M1085.48 899.939L1111.34 944.933L1137.21 899.939H1085.48Z" fill="#1EBEE6"/>
<path d="M1033.83 899.939L1059.61 944.933L1085.48 899.939H1033.83Z" fill="#82DCA0"/>
<path d="M1059.61 944.933L1085.48 899.939L1111.34 944.933H1059.61Z" fill="#3C5078"/>
<path d="M1234.81 179.978L1208.94 135.067L1183.07 179.978H1234.81Z" fill="#4664EA"/>
<path d="M1208.94 135.067L1183.07 90.0723L1157.21 135.067H1208.94Z" fill="#1EBEE6"/>
<path d="M1208.94 135.067L1183.07 179.978L1157.21 135.067H1208.94Z" fill="#FF87A0"/>
<path d="M1007.96 944.933L982.094 989.928L956.227 944.933H1007.96Z" fill="#4664EA"/>
<path d="M982.094 899.939L956.227 944.933L930.361 899.939H982.094Z" fill="#1EBEE6"/>
<path d="M1007.96 944.933L982.094 899.939L956.227 944.933H1007.96Z" fill="#FF87A0"/>
<path d="M1292.24 989.928L1266.38 944.933L1240.59 989.928H1292.24Z" fill="#FAD250"/>
<path d="M1266.38 944.933L1240.59 899.939L1214.73 944.933H1266.38Z" fill="#FAD250"/>
<path d="M310.065 899.939L258.332 989.928L206.682 899.939H310.065Z" fill="#82DCA0"/>
<path d="M982.094 989.928L930.361 1079.92L878.711 989.928H982.094Z" fill="#4664EA"/>
<path d="M620.213 1079.92L568.563 989.928L516.83 1079.92H620.213Z" fill="#3C5078"/>
<path d="M516.831 1079.92L465.181 989.928L413.448 1079.92H516.831Z" fill="#82DCA0"/>
<path d="M258.332 989.928L206.682 899.939L154.95 989.928H258.332Z" fill="#FAD250"/>
<path d="M465.181 989.928L413.448 1079.92L361.798 989.928H465.181Z" fill="#FAD250"/>
<path d="M1395.62 989.928L1447.36 899.939L1499.01 989.928H1395.62Z" fill="#1EBEE6"/>
<path d="M1550.74 1079.92L1499.01 989.928L1447.36 1079.92H1550.74Z" fill="#82DCA0"/>
<path d="M1499.01 989.928L1447.36 1079.92L1395.62 989.928H1499.01Z" fill="#FAD250"/>
<path d="M568.563 989.928L542.697 1034.92L516.83 989.928H568.563Z" fill="#FAD250"/>
<path d="M232.549 1034.92L206.682 1079.92L180.816 1034.92H232.549Z" fill="#4664EA"/>
<path d="M542.696 944.933L516.83 989.928L490.964 944.933H542.696Z" fill="#4664EA"/>
<path d="M516.83 989.928L490.964 944.933L465.18 989.928H516.83Z" fill="#FF87A0"/>
<path d="M206.682 989.928L232.549 1034.92L258.332 989.928H206.682Z" fill="#1EBEE6"/>
<path d="M180.816 1034.92L206.682 989.928L232.549 1034.92H180.816Z" fill="#FAD250"/>
<path d="M542.696 1034.92L516.83 1079.92L490.964 1034.92H542.696Z" fill="#4664EA"/>
<path d="M516.83 989.928L490.964 1034.92L465.18 989.928H516.83Z" fill="#1EBEE6"/>
<path d="M542.696 1034.92L516.83 989.928L490.964 1034.92H542.696Z" fill="#FF87A0"/>
<path d="M568.563 989.928L542.697 944.933L516.83 989.928H568.563Z" fill="#FAD250"/>
<path d="M749.462 944.933L723.595 989.928L697.812 944.933H749.462Z" fill="#1EBEE6"/>
<path d="M723.596 989.928L697.812 944.933L671.946 989.928H723.596Z" fill="#82DCA0"/>
<path d="M775.329 989.928L749.462 944.933L723.596 989.928H775.329Z" fill="#FF87A0"/>
<path d="M749.462 944.933L723.595 899.939L697.812 944.933H749.462Z" fill="#4664EA"/>
<path d="M413.448 899.939L361.798 809.95L310.065 899.939H413.448Z" fill="#FAD250"/>
<path d="M594.347 854.944L568.563 809.95L542.697 854.944H594.347Z" fill="#FAD250"/>
<path d="M975.864 90.0721L949.998 45.0776L924.214 90.0721H975.864Z" fill="#1EBEE6"/>
<path d="M1001.73 45.0777L975.864 0.083252L949.998 45.0777H1001.73Z" fill="#FF87A0"/>
<path d="M1001.73 45.0776L975.864 90.0721L949.998 45.0776H1001.73Z" fill="#FAD250"/>
<path d="M1287 180L1261 226L1235 180H1287Z" fill="#82DCA0"/>
<path d="M1313 225L1286.54 270L1260 225H1313Z" fill="#1EBEE6"/>
<path d="M1338.44 179.978L1312.57 224.972L1286.79 179.978H1338.44Z" fill="#4664EA"/>
<path d="M1312.57 224.972L1286.79 179.978L1260.92 224.972H1312.57Z" fill="#FAD250"/>
<path d="M1286.46 269.967L1260.59 314.961L1234.81 269.967H1286.46Z" fill="#FF87A0"/>
<path d="M490.881 674.967L465.015 719.961L439.149 674.967H490.881Z" fill="#FF87A0"/>
<path d="M801.195 764.956L775.328 809.95L749.462 764.956H801.195Z" fill="#3C5078"/>
<path d="M801.195 764.955L775.328 719.961L749.462 764.955H801.195Z" fill="#FAD250"/>
<path d="M490.964 854.944L516.83 809.95L542.696 854.944H490.964Z" fill="#1EBEE6"/>
<path d="M516.83 809.95L542.697 854.944L568.563 809.95H516.83Z" fill="#82DCA0"/>
<path d="M465.18 809.95L490.964 854.944L516.83 809.95H465.18Z" fill="#FF87A0"/>
<path d="M490.964 854.944L516.83 899.939L542.696 854.944H490.964Z" fill="#FAD250"/>
<path d="M826.978 989.928L852.845 1034.92L878.711 989.928H826.978Z" fill="#FAD250"/>
<path d="M387.581 854.944L413.448 809.95L439.314 854.944H387.581Z" fill="#FF87A0"/>
<path d="M490.964 944.933L516.83 899.939L542.696 944.933H490.964Z" fill="#FF87A0"/>
<path d="M413.448 809.95L439.314 854.944L465.181 809.95H413.448Z" fill="#82DCA0"/>
<path d="M361.798 809.95L387.581 854.944L413.448 809.95H361.798Z" fill="#3C5078"/>
<path d="M387.581 854.944L413.448 899.939L439.314 854.944H387.581Z" fill="#4664EA"/>
<path d="M465.18 719.961L490.964 674.967L516.83 719.961H465.18Z" fill="#1EBEE6"/>
<path d="M542.696 764.956L516.83 809.95L490.964 764.956H542.696Z" fill="#FF87A0"/>
<path d="M516.83 809.95L490.964 764.956L465.18 809.95H516.83Z" fill="#FAD250"/>
<path d="M465.181 719.961L439.314 764.955L413.448 719.961H465.181Z" fill="#4664EA"/>
<path d="M516.83 719.961L490.964 764.955L465.18 719.961H516.83Z" fill="#FF87A0"/>
<path d="M490.964 764.955L465.18 719.961L439.314 764.955H490.964Z" fill="#82DCA0"/>
<path d="M568.563 809.95L542.697 764.956L516.83 809.95H568.563Z" fill="#4664EA"/>
<path d="M801.195 1034.92L826.979 1079.92L852.845 1034.92H801.195Z" fill="#82DCA0"/>
<path d="M826.978 989.928L801.195 1034.92L775.328 989.928H826.978Z" fill="#FF87A0"/>
<path d="M852.845 1034.92L826.979 989.928L801.195 1034.92H852.845Z" fill="#3C5078"/>
<path d="M465.264 720.044L439.48 675.05L413.614 720.044H465.264Z" fill="#FAD250"/>
<path d="M490.881 674.967L465.015 629.972L439.149 674.967H490.881Z" fill="#1EBEE6"/>
<path d="M1208.94 224.972L1234.81 269.967L1260.59 224.972H1208.94Z" fill="#FAD250"/>
<path d="M1286.46 269.967L1260.59 224.972L1234.81 269.967H1286.46Z" fill="#4664EA"/>
<path d="M1157.21 135.067L1131.34 179.978L1105.56 135.067H1157.21Z" fill="#4664EA"/>
<path d="M1183.07 90.0723L1157.21 135.067L1131.34 90.0723H1183.07Z" fill="#FAD250"/>
<path d="M1079.69 90.0723L1105.56 135.067L1131.34 90.0723H1079.69Z" fill="#3C5078"/>
<path d="M1157.21 135.067L1131.34 90.0723L1105.56 135.067H1157.21Z" fill="#82DCA0"/>
<path d="M387.582 764.956L361.715 809.95L335.849 764.956H387.582Z" fill="#1EBEE6"/>
<path d="M413.448 719.961L387.581 764.955L361.715 719.961H413.448Z" fill="#FAD250"/>
<path d="M387.996 675.05L413.779 720.044L439.646 675.05H387.996Z" fill="#4664EA"/>
<path d="M387.582 764.955L361.715 719.961L335.849 764.955H387.582Z" fill="#FF87A0"/>
<path d="M1183.07 179.978L1208.94 224.972L1234.81 179.978H1183.07Z" fill="#1EBEE6"/>
<path d="M1260.59 224.972L1234.81 179.978L1208.94 224.972H1260.59Z" fill="#82DCA0"/>
<path d="M1033.83 1079.92L982.094 989.928L930.361 1079.92H1033.83Z" fill="#FAD250"/>
<path d="M1240.59 1079.92L1188.86 989.928L1137.21 1079.92H1240.59Z" fill="#FF87A0"/>
<path d="M1137.21 989.928L1111.34 1034.92L1085.48 989.928H1137.21Z" fill="#3C5078"/>
<path d="M1266.38 1034.92L1240.59 989.928L1214.73 1034.92H1266.38Z" fill="#1EBEE6"/>
<path d="M1240.59 989.928L1214.73 1034.92L1188.86 989.928H1240.59Z" fill="#4664EA"/>
<path d="M1292.24 989.928L1266.38 1034.92L1240.59 989.928H1292.24Z" fill="#FF87A0"/>
<path d="M1266.38 1034.92L1240.59 1079.92L1214.73 1034.92H1266.38Z" fill="#4664EA"/>
<path d="M1162.99 1034.92L1137.21 1079.92L1111.34 1034.92H1162.99Z" fill="#1EBEE6"/>
<path d="M1188.86 989.928L1162.99 1034.92L1137.21 989.928H1188.86Z" fill="#FF87A0"/>
<path d="M1162.99 1034.92L1137.21 989.928L1111.34 1034.92H1162.99Z" fill="#FAD250"/>
<path d="M1447.36 899.939L1395.62 989.928L1343.97 899.939H1447.36Z" fill="#FF87A0"/>
<path d="M930.361 1079.92L878.711 989.928L826.978 1079.92H930.361Z" fill="#FF87A0"/>
<path d="M1085.48 989.928L1033.83 1079.92L982.094 989.928H1085.48Z" fill="#82DCA0"/>
<path d="M1111.34 1034.92L1085.48 989.928L1059.61 1034.92H1111.34Z" fill="#1EBEE6"/>
<path d="M1137.21 1079.92L1111.34 1034.92L1085.48 1079.92H1137.21Z" fill="#FAD250"/>
<path d="M1085.48 1079.92L1059.61 1034.92L1033.83 1079.92H1085.48Z" fill="#FF87A0"/>
<path d="M1111.34 1034.92L1085.48 1079.92L1059.61 1034.92H1111.34Z" fill="#82DCA0"/>
<path d="M542.696 764.955L516.83 719.961L490.964 764.955H542.696Z" fill="#82DCA0"/>
<path d="M413.365 720.044L387.498 675.05L361.632 720.044H413.365Z" fill="#82DCA0"/>
<path d="M542.696 674.967L516.83 629.972L490.964 674.967H542.696Z" fill="#1EBEE6"/>
<path d="M568.563 629.972L542.697 674.967L516.83 629.972H568.563Z" fill="#FF87A0"/>
<path d="M542.696 674.967L516.83 719.961L490.964 674.967H542.696Z" fill="#3C5078"/>
<path d="M1679.39 944.967L1653.61 899.972L1627.74 944.967H1679.39Z" fill="#1EBEE6"/>
<path d="M1601.87 989.961L1627.74 944.967L1653.61 989.961H1601.87Z" fill="#FAD250"/>
<path d="M1679.39 944.967L1653.61 989.961L1627.74 944.967H1679.39Z" fill="#FF87A0"/>
<path d="M1131.34 0.083252L1079.69 90.0722L1027.96 0.083252H1131.34Z" fill="#4664EA"/>
<path d="M924.214 90.0722L872.481 0.083252L820.832 90.0722H924.214Z" fill="#1EBEE6"/>
<path d="M872.481 0.083252L846.615 45.0777L820.832 0.083252H872.481Z" fill="#FAD250"/>
<path d="M949.998 45.0776L924.214 90.0721L898.348 45.0776H949.998Z" fill="#4664EA"/>
<path d="M975.864 90.0723L949.998 135.067L924.214 90.0723H975.864Z" fill="#FF87A0"/>
<path d="M924.214 0.083252L949.998 45.0777L975.864 0.083252H924.214Z" fill="#1EBEE6"/>
<path d="M872.481 0.083252L898.348 45.0777L924.214 0.083252H872.481Z" fill="#82DCA0"/>
<path d="M898.348 45.0777L924.214 0.083252L949.998 45.0777H898.348Z" fill="#FAD250"/>
<path d="M1654.29 990.011L1628.42 1035.01L1602.64 990.011H1654.29Z" fill="#1EBEE6"/>
<path d="M1628.42 1035.01L1602.64 990.011L1576.77 1035.01H1628.42Z" fill="#4664EA"/>
<path d="M1602.64 1080L1628.42 1035.01L1654.29 1080H1602.64Z" fill="#1EBEE6"/>
<path d="M1550.91 1080L1576.77 1035.01L1602.64 1080H1550.91Z" fill="#82DCA0"/>
<path d="M1576.77 1035.01L1602.64 1080L1628.42 1035.01H1576.77Z" fill="#FAD250"/>
<path d="M1679.82 1034.92L1654.04 989.928L1628.17 1034.92H1679.82Z" fill="#3C5078"/>
<path d="M1628.17 1034.92L1654.04 1079.92L1679.82 1034.92H1628.17Z" fill="#FF87A0"/>
<path d="M846.615 45.0776L820.832 90.0721L794.966 45.0776H846.615Z" fill="#3C5078"/>
<path d="M820.832 0.083252L794.965 45.0777L769.099 0.083252H820.832Z" fill="#1EBEE6"/>
<path d="M846.615 45.0777L820.832 0.083252L794.966 45.0777H846.615Z" fill="#FF87A0"/>
<path d="M206.765 1079.92L155.115 990.011L103.383 1079.92H206.765Z" fill="#1EBEE6"/>
<path d="M155.115 990.011L103.382 1079.92L51.7325 990.011H155.115Z" fill="#FAD250"/>
<path d="M103.383 1079.92L51.7328 990.011L0 1079.92H103.383Z" fill="#1EBEE6"/>
<path d="M155.115 990.011L103.382 900.022L51.7325 990.011H155.115Z" fill="#4664EA"/>
<path d="M103.382 900.022L77.516 945.017L51.7325 900.022H103.382Z" fill="#FAD250"/>
<path d="M180.899 945.017L155.115 990.011L129.249 945.017H180.899Z" fill="#4664EA"/>
<path d="M206.766 990.011L180.899 1035.01L155.116 990.011H206.766Z" fill="#FF87A0"/>
<path d="M155.116 900.022L180.899 945.017L206.766 900.022H155.116Z" fill="#1EBEE6"/>
<path d="M103.383 900.022L129.249 945.017L155.115 900.022H103.383Z" fill="#82DCA0"/>
<path d="M129.249 945.017L155.115 900.022L180.899 945.017H129.249Z" fill="#FAD250"/>
<path d="M77.5165 945.017L51.733 990.011L25.8666 945.017H77.5165Z" fill="#3C5078"/>
<path d="M77.5165 945.017L51.733 900.022L25.8666 945.017H77.5165Z" fill="#FF87A0"/>
<path d="M1027.43 0.083252L1001.57 45.0777L975.699 0.083252H1027.43Z" fill="#4664EA"/>
<path d="M516.83 629.972L490.964 674.967L465.18 629.972H516.83Z" fill="#82DCA0"/>
<path d="M1551.04 899.972L1499.31 989.961L1447.66 899.972H1551.04Z" fill="#3C5078"/>
</svg>
